<svg version="1.1" xmlns="http://www.w3.org/2000/svg" xmlns:xlink="http://www.w3.org/1999/xlink" width="1517.57080078125" height="843"><defs/><g><g transform="translate(-166,-398) scale(1,1)"><rect fill="#C0C0C0" stroke="none" x="1334" y="415" width="280" height="112" opacity="0.2"/></g><g transform="translate(-166,-398) scale(1,1)"><rect fill="#a3ffd1" stroke="none" x="1327" y="408" width="280" height="112"/></g><g transform="translate(-166,-398) scale(1,1)"><path fill="none" stroke="#000000" d="M 1327 408 L 1607 408 L 1607 520 L 1327 520 L 1327 408 Z Z" stroke-miterlimit="10"/></g><g transform="translate(-166,-398) scale(1,1)"><path fill="none" stroke="#000000" d="M 1327 433 L 1607 433" stroke-miterlimit="10"/></g><g transform="translate(-166,-398) scale(1,1)"><path fill="none" stroke="#000000" d="M 1327 443 L 1607 443" stroke-miterlimit="10"/></g><g transform="translate(-166,-398) scale(1,1)"><g><path fill="none" stroke="none"/><text fill="#000000" stroke="none" font-family="Arial" font-size="13px" font-style="normal" font-weight="bold" text-decoration="none" x="1433.049560546875" y="427.5">SCPFormat</text></g></g><g transform="translate(-166,-398) scale(1,1)"><rect fill="#C0C0C0" stroke="none" x="1251" y="607" width="95.68359375" height="44" opacity="0.2"/></g><g transform="translate(-166,-398) scale(1,1)"><rect fill="#6dff6d" stroke="none" x="1244" y="600" width="95.68359375" height="44"/></g><g transform="translate(-166,-398) scale(1,1)"><path fill="none" stroke="#000000" d="M 1244 600 L 1339.68359375 600 L 1339.68359375 644 L 1244 644 L 1244 600 Z Z" stroke-miterlimit="10"/></g><g transform="translate(-166,-398) scale(1,1)"><path fill="none" stroke="#000000" d="M 1244 625 L 1339.68359375 625" stroke-miterlimit="10"/></g><g transform="translate(-166,-398) scale(1,1)"><path fill="none" stroke="#000000" d="M 1244 635 L 1339.68359375 635" stroke-miterlimit="10"/></g><g transform="translate(-166,-398) scale(1,1)"><g><path fill="none" stroke="none"/><text fill="#000000" stroke="none" font-family="Arial" font-size="13px" font-style="normal" font-weight="bold" text-decoration="none" x="1251.378662109375" y="619.5">IDemographic</text></g></g><g transform="translate(-166,-398) scale(1,1)"><rect fill="#C0C0C0" stroke="none" x="455" y="615" width="79.0654296875" height="44" opacity="0.2"/></g><g transform="translate(-166,-398) scale(1,1)"><rect fill="#6dff6d" stroke="none" x="448" y="608" width="79.0654296875" height="44"/></g><g transform="translate(-166,-398) scale(1,1)"><path fill="none" stroke="#000000" d="M 448 608 L 527.0654296875 608 L 527.0654296875 652 L 448 652 L 448 608 Z Z" stroke-miterlimit="10"/></g><g transform="translate(-166,-398) scale(1,1)"><path fill="none" stroke="#000000" d="M 448 633 L 527.0654296875 633" stroke-miterlimit="10"/></g><g transform="translate(-166,-398) scale(1,1)"><path fill="none" stroke="#000000" d="M 448 643 L 527.0654296875 643" stroke-miterlimit="10"/></g><g transform="translate(-166,-398) scale(1,1)"><g><path fill="none" stroke="none"/><text fill="#000000" stroke="none" font-family="Arial" font-size="13px" font-style="normal" font-weight="bold" text-decoration="none" x="455.378662109375" y="627.5">IDiagnostic</text></g></g><g transform="translate(-166,-398) scale(1,1)"><rect fill="#C0C0C0" stroke="none" x="559" y="615" width="136.8671875" height="44" opacity="0.2"/></g><g transform="translate(-166,-398) scale(1,1)"><rect fill="#6dff6d" stroke="none" x="552" y="608" width="136.8671875" height="44"/></g><g transform="translate(-166,-398) scale(1,1)"><path fill="none" stroke="#000000" d="M 552 608 L 688.8671875 608 L 688.8671875 652 L 552 652 L 552 608 Z Z" stroke-miterlimit="10"/></g><g transform="translate(-166,-398) scale(1,1)"><path fill="none" stroke="#000000" d="M 552 633 L 688.8671875 633" stroke-miterlimit="10"/></g><g transform="translate(-166,-398) scale(1,1)"><path fill="none" stroke="#000000" d="M 552 643 L 688.8671875 643" stroke-miterlimit="10"/></g><g transform="translate(-166,-398) scale(1,1)"><g><path fill="none" stroke="none"/><text fill="#000000" stroke="none" font-family="Arial" font-size="13px" font-style="normal" font-weight="bold" text-decoration="none" x="560.09912109375" y="627.5">IGlobalMeasurement</text></g></g><g transform="translate(-166,-398) scale(1,1)"><rect fill="#C0C0C0" stroke="none" x="1055" y="527" width="55.236328125" height="44" opacity="0.2"/></g><g transform="translate(-166,-398) scale(1,1)"><rect fill="#ffffff" stroke="none" x="1048" y="520" width="55.236328125" height="44"/></g><g transform="translate(-166,-398) scale(1,1)"><path fill="none" stroke="#000000" d="M 1048 520 L 1103.236328125 520 L 1103.236328125 564 L 1048 564 L 1048 520 Z Z" stroke-miterlimit="10"/></g><g transform="translate(-166,-398) scale(1,1)"><path fill="none" stroke="#000000" d="M 1048 545 L 1103.236328125 545" stroke-miterlimit="10"/></g><g transform="translate(-166,-398) scale(1,1)"><path fill="none" stroke="#000000" d="M 1048 555 L 1103.236328125 555" stroke-miterlimit="10"/></g><g transform="translate(-166,-398) scale(1,1)"><g><path fill="none" stroke="none"/><text fill="#000000" stroke="none" font-family="Arial" font-size="13px" font-style="normal" font-weight="bold" text-decoration="none" x="1054.299560546875" y="539.5">Signals</text></g></g><g transform="translate(-166,-398) scale(1,1)"><rect fill="#C0C0C0" stroke="none" x="1047" y="687" width="55.236328125" height="44" opacity="0.2"/></g><g transform="translate(-166,-398) scale(1,1)"><rect fill="#ffffff" stroke="none" x="1040" y="680" width="55.236328125" height="44"/></g><g transform="translate(-166,-398) scale(1,1)"><path fill="none" stroke="#000000" d="M 1040 680 L 1095.236328125 680 L 1095.236328125 724 L 1040 724 L 1040 680 Z Z" stroke-miterlimit="10"/></g><g transform="translate(-166,-398) scale(1,1)"><path fill="none" stroke="#000000" d="M 1040 705 L 1095.236328125 705" stroke-miterlimit="10"/></g><g transform="translate(-166,-398) scale(1,1)"><path fill="none" stroke="#000000" d="M 1040 715 L 1095.236328125 715" stroke-miterlimit="10"/></g><g transform="translate(-166,-398) scale(1,1)"><g><path fill="none" stroke="none"/><text fill="#000000" stroke="none" font-family="Arial" font-size="13px" font-style="normal" font-weight="bold" text-decoration="none" x="1049.549560546875" y="699.5">Signal</text></g></g><g transform="translate(-166,-398) scale(1,1)"><rect fill="#C0C0C0" stroke="none" x="1119" y="687" width="68.2236328125" height="44" opacity="0.2"/></g><g transform="translate(-166,-398) scale(1,1)"><rect fill="#ffffff" stroke="none" x="1112" y="680" width="68.2236328125" height="44"/></g><g transform="translate(-166,-398) scale(1,1)"><path fill="none" stroke="#000000" d="M 1112 680 L 1180.2236328125 680 L 1180.2236328125 724 L 1112 724 L 1112 680 Z Z" stroke-miterlimit="10"/></g><g transform="translate(-166,-398) scale(1,1)"><path fill="none" stroke="#000000" d="M 1112 705 L 1180.2236328125 705" stroke-miterlimit="10"/></g><g transform="translate(-166,-398) scale(1,1)"><path fill="none" stroke="#000000" d="M 1112 715 L 1180.2236328125 715" stroke-miterlimit="10"/></g><g transform="translate(-166,-398) scale(1,1)"><g><path fill="none" stroke="none"/><text fill="#000000" stroke="none" font-family="Arial" font-size="13px" font-style="normal" font-weight="bold" text-decoration="none" x="1117.2109375" y="699.5">QRSZone</text></g></g><g transform="translate(-166,-398) scale(1,1)"><rect fill="#C0C0C0" stroke="none" x="871" y="607" width="88" height="44" opacity="0.2"/></g><g transform="translate(-166,-398) scale(1,1)"><rect fill="#6dff6d" stroke="none" x="864" y="600" width="88" height="44"/></g><g transform="translate(-166,-398) scale(1,1)"><path fill="none" stroke="#000000" d="M 864 600 L 952 600 L 952 644 L 864 644 L 864 600 Z Z" stroke-miterlimit="10"/></g><g transform="translate(-166,-398) scale(1,1)"><path fill="none" stroke="#000000" d="M 864 625 L 952 625" stroke-miterlimit="10"/></g><g transform="translate(-166,-398) scale(1,1)"><path fill="none" stroke="#000000" d="M 864 635 L 952 635" stroke-miterlimit="10"/></g><g transform="translate(-166,-398) scale(1,1)"><g><path fill="none" stroke="none"/><text fill="#000000" stroke="none" font-family="Arial" font-size="13px" font-style="normal" font-weight="bold" text-decoration="none" x="888.12548828125" y="619.5">ISignal</text></g></g><g transform="translate(-166,-398) scale(1,1)"><path fill="none" stroke="#000000" d="M 953 600 L 1047 555" stroke-miterlimit="10" stroke-dasharray="3"/></g><g transform="translate(-166,-398) scale(1,1)"><path fill="none" stroke="#000000" d="M 1039.6512028476466 563.1850583634792 L 1047 555 L 1036.0159054267826 555.5913259732303" stroke-miterlimit="10"/></g><g transform="translate(-166,-398) scale(1,1)"><rect fill="#C0C0C0" stroke="none" x="1425" y="591" width="99.6826171875" height="117" opacity="0.2"/></g><g transform="translate(-166,-398) scale(1,1)"><rect fill="#ffbf00" stroke="none" x="1418" y="584" width="99.6826171875" height="117"/></g><g transform="translate(-166,-398) scale(1,1)"><path fill="none" stroke="#000000" d="M 1418 584 L 1517.6826171875 584 L 1517.6826171875 701 L 1418 701 L 1418 584 Z Z" stroke-miterlimit="10"/></g><g transform="translate(-166,-398) scale(1,1)"><path fill="none" stroke="#000000" d="M 1418 609 L 1517.6826171875 609" stroke-miterlimit="10"/></g><g transform="translate(-166,-398) scale(1,1)"><path fill="none" stroke="#000000" d="M 1418 619 L 1517.6826171875 619" stroke-miterlimit="10"/></g><g transform="translate(-166,-398) scale(1,1)"><g><path fill="none" stroke="none"/><text fill="#000000" stroke="none" font-family="Arial" font-size="13px" font-style="normal" font-weight="bold" text-decoration="none" x="1432.7958984375" y="603.5">SCPSection</text></g></g><g transform="translate(-166,-398) scale(1,1)"><g><path fill="none" stroke="none"/><text fill="#000000" stroke="none" font-family="Arial" font-size="13px" font-style="italic" font-weight="normal" text-decoration="none" x="1423" y="636.5">+getSectionID()</text></g></g><g transform="translate(-166,-398) scale(1,1)"><g><path fill="none" stroke="none"/><text fill="#000000" stroke="none" font-family="Arial" font-size="13px" font-style="italic" font-weight="normal" text-decoration="none" x="1423" y="651.5">+Works()</text></g></g><g transform="translate(-166,-398) scale(1,1)"><g><path fill="none" stroke="none"/><text fill="#000000" stroke="none" font-family="Arial" font-size="13px" font-style="italic" font-weight="normal" text-decoration="none" x="1423" y="666.5">#_getLength()</text></g></g><g transform="translate(-166,-398) scale(1,1)"><g><path fill="none" stroke="none"/><text fill="#000000" stroke="none" font-family="Arial" font-size="13px" font-style="italic" font-weight="normal" text-decoration="none" x="1423" y="681.5">#_Empty()</text></g></g><g transform="translate(-166,-398) scale(1,1)"><g><path fill="none" stroke="none"/><text fill="#000000" stroke="none" font-family="Arial" font-size="13px" font-style="italic" font-weight="normal" text-decoration="none" x="1423" y="696.5">#_Write()</text></g></g><g transform="translate(-166,-398) scale(1,1)"><rect fill="#C0C0C0" stroke="none" x="1434" y="1006" width="80.5126953125" height="44" opacity="0.2"/></g><g transform="translate(-166,-398) scale(1,1)"><rect fill="#ffffd8" stroke="none" x="1427" y="999" width="80.5126953125" height="44"/></g><g transform="translate(-166,-398) scale(1,1)"><path fill="none" stroke="#000000" d="M 1427 999 L 1507.5126953125 999 L 1507.5126953125 1043 L 1427 1043 L 1427 999 Z Z" stroke-miterlimit="10"/></g><g transform="translate(-166,-398) scale(1,1)"><path fill="none" stroke="#000000" d="M 1427 1024 L 1507.5126953125 1024" stroke-miterlimit="10"/></g><g transform="translate(-166,-398) scale(1,1)"><path fill="none" stroke="#000000" d="M 1427 1034 L 1507.5126953125 1034" stroke-miterlimit="10"/></g><g transform="translate(-166,-398) scale(1,1)"><g><path fill="none" stroke="none"/><text fill="#000000" stroke="none" font-family="Arial" font-size="13px" font-style="normal" font-weight="bold" text-decoration="none" x="1433.29638671875" y="1018.5">SCPPointer</text></g></g><g transform="translate(-166,-398) scale(1,1)"><rect fill="#C0C0C0" stroke="none" x="1430" y="910" width="89.91357421875" height="44" opacity="0.2"/></g><g transform="translate(-166,-398) scale(1,1)"><rect fill="#ffdf82" stroke="none" x="1423" y="903" width="89.91357421875" height="44"/></g><g transform="translate(-166,-398) scale(1,1)"><path fill="none" stroke="#000000" d="M 1423 903 L 1512.91357421875 903 L 1512.91357421875 947 L 1423 947 L 1423 903 Z Z" stroke-miterlimit="10"/></g><g transform="translate(-166,-398) scale(1,1)"><path fill="none" stroke="#000000" d="M 1423 928 L 1512.91357421875 928" stroke-miterlimit="10"/></g><g transform="translate(-166,-398) scale(1,1)"><path fill="none" stroke="#000000" d="M 1423 938 L 1512.91357421875 938" stroke-miterlimit="10"/></g><g transform="translate(-166,-398) scale(1,1)"><g><path fill="none" stroke="none"/><text fill="#000000" stroke="none" font-family="Arial" font-size="13px" font-style="normal" font-weight="bold" text-decoration="none" x="1429.29638671875" y="922.5">SCPSection0</text></g></g><g transform="translate(-166,-398) scale(1,1)"><path fill="none" stroke="#000000" d="M 1467 583 L 1467 521" stroke-miterlimit="10"/></g><g transform="translate(-166,-398) scale(1,1)"><path fill="#000000" stroke="none" d="M 1471.2095177560159 531.1626748576241 L 1467 521 L 1462.7904822439841 531.1626748576241 L 1467 543"/></g><g transform="translate(-166,-398) scale(1,1)"><path fill="none" stroke="#000000" d="M 1471.2095177560159 531.1626748576241 L 1467 521 L 1462.7904822439841 531.1626748576241 L 1467 543 L 1471.2095177560159 531.1626748576241" stroke-miterlimit="10"/></g><g transform="translate(-166,-398) scale(1,1)"><path fill="none" stroke="#000000" d="M 1467 902 L 1467 702" stroke-miterlimit="10"/></g><g transform="translate(-166,-398) scale(1,1)"><path fill="#FFFFFF" stroke="none" d="M 1475.419035512032 722.3253497152483 L 1467 702 L 1458.580964487968 722.3253497152483"/></g><g transform="translate(-166,-398) scale(1,1)"><path fill="none" stroke="#000000" d="M 1475.419035512032 722.3253497152483 L 1467 702 L 1458.580964487968 722.3253497152483 L 1475.419035512032 722.3253497152483" stroke-miterlimit="10"/></g><g transform="translate(-166,-398) scale(1,1)"><path fill="none" stroke="#000000" d="M 1467 998 L 1467 948" stroke-miterlimit="10"/></g><g transform="translate(-166,-398) scale(1,1)"><path fill="#000000" stroke="none" d="M 1471.2095177560159 958.1626748576241 L 1467 948 L 1462.7904822439841 958.1626748576241 L 1467 970"/></g><g transform="translate(-166,-398) scale(1,1)"><path fill="none" stroke="#000000" d="M 1471.2095177560159 958.1626748576241 L 1467 948 L 1462.7904822439841 958.1626748576241 L 1467 970 L 1471.2095177560159 958.1626748576241" stroke-miterlimit="10"/></g><g transform="translate(-166,-398) scale(1,1)"><rect fill="#C0C0C0" stroke="none" x="1254" y="910" width="89.91357421875" height="44" opacity="0.2"/></g><g transform="translate(-166,-398) scale(1,1)"><rect fill="#ffdf82" stroke="none" x="1247" y="903" width="89.91357421875" height="44"/></g><g transform="translate(-166,-398) scale(1,1)"><path fill="none" stroke="#000000" d="M 1247 903 L 1336.91357421875 903 L 1336.91357421875 947 L 1247 947 L 1247 903 Z Z" stroke-miterlimit="10"/></g><g transform="translate(-166,-398) scale(1,1)"><path fill="none" stroke="#000000" d="M 1247 928 L 1336.91357421875 928" stroke-miterlimit="10"/></g><g transform="translate(-166,-398) scale(1,1)"><path fill="none" stroke="#000000" d="M 1247 938 L 1336.91357421875 938" stroke-miterlimit="10"/></g><g transform="translate(-166,-398) scale(1,1)"><g><path fill="none" stroke="none"/><text fill="#000000" stroke="none" font-family="Arial" font-size="13px" font-style="normal" font-weight="bold" text-decoration="none" x="1253.29638671875" y="922.5">SCPSection1</text></g></g><g transform="translate(-166,-398) scale(1,1)"><path fill="none" stroke="#000000" d="M 1305 902 L 1430 702" stroke-miterlimit="10"/></g><g transform="translate(-166,-398) scale(1,1)"><path fill="#FFFFFF" stroke="none" d="M 1426.3669140312861 723.6979419840669 L 1430 702 L 1412.0882583601629 714.7737821896147"/></g><g transform="translate(-166,-398) scale(1,1)"><path fill="none" stroke="#000000" d="M 1426.3669140312861 723.6979419840669 L 1430 702 L 1412.0882583601629 714.7737821896147 L 1426.3669140312861 723.6979419840669" stroke-miterlimit="10"/></g><g transform="translate(-166,-398) scale(1,1)"><path fill="none" stroke="#000000" d="M 1291 902 L 1291 645" stroke-miterlimit="10"/></g><g transform="translate(-166,-398) scale(1,1)"><path fill="#FFFFFF" stroke="none" d="M 1299.419035512032 665.3253497152483 L 1291 645 L 1282.580964487968 665.3253497152483"/></g><g transform="translate(-166,-398) scale(1,1)"><path fill="none" stroke="#000000" d="M 1299.419035512032 665.3253497152483 L 1291 645 L 1282.580964487968 665.3253497152483 L 1299.419035512032 665.3253497152483" stroke-miterlimit="10"/></g><g transform="translate(-166,-398) scale(1,1)"><rect fill="#C0C0C0" stroke="none" x="1591" y="607" width="89.57080078125" height="57" opacity="0.2"/></g><g transform="translate(-166,-398) scale(1,1)"><rect fill="#a3e0ff" stroke="none" x="1584" y="600" width="89.57080078125" height="57"/></g><g transform="translate(-166,-398) scale(1,1)"><path fill="none" stroke="#000000" d="M 1584 600 L 1673.57080078125 600 L 1673.57080078125 657 L 1584 657 L 1584 600 Z Z" stroke-miterlimit="10"/></g><g transform="translate(-166,-398) scale(1,1)"><path fill="none" stroke="#000000" d="M 1584 625 L 1673.57080078125 625" stroke-miterlimit="10"/></g><g transform="translate(-166,-398) scale(1,1)"><path fill="none" stroke="#000000" d="M 1584 635 L 1673.57080078125 635" stroke-miterlimit="10"/></g><g transform="translate(-166,-398) scale(1,1)"><g><path fill="none" stroke="none"/><text fill="#000000" stroke="none" font-family="Arial" font-size="13px" font-style="normal" font-weight="bold" text-decoration="none" x="1602.779052734375" y="619.5">CRCTool</text></g></g><g transform="translate(-166,-398) scale(1,1)"><g><path fill="none" stroke="none"/><text fill="#000000" stroke="none" font-family="Arial" font-size="13px" font-style="normal" font-weight="normal" text-decoration="none" x="1589" y="652.5">+Init()</text></g></g><g transform="translate(-166,-398) scale(1,1)"><path fill="none" stroke="#000000" d="M 1519 638 L 1583 632" stroke-miterlimit="10" stroke-dasharray="3"/></g><g transform="translate(-166,-398) scale(1,1)"><path fill="none" stroke="#000000" d="M 1573.2746124540397 637.1397312265216 L 1583 632 L 1572.4887737128347 628.757451320334" stroke-miterlimit="10"/></g><g transform="translate(-166,-398) scale(1,1)"><path fill="none" stroke="#000000" d="M 1068 679 L 1074 565" stroke-miterlimit="10"/></g><g transform="translate(-166,-398) scale(1,1)"><path fill="#000000" stroke="none" d="M 1077.6695611521266 575.3698756477985 L 1074 565 L 1069.2621621840278 574.9273809652669 L 1072.8437056712992 586.9695922453152"/></g><g transform="translate(-166,-398) scale(1,1)"><path fill="none" stroke="#000000" d="M 1077.6695611521266 575.3698756477985 L 1074 565 L 1069.2621621840278 574.9273809652669 L 1072.8437056712992 586.9695922453152 L 1077.6695611521266 575.3698756477985" stroke-miterlimit="10"/></g><g transform="translate(-166,-398) scale(1,1)"><path fill="none" stroke="#000000" d="M 1136 679 L 1085 565" stroke-miterlimit="10"/></g><g transform="translate(-166,-398) scale(1,1)"><path fill="#000000" stroke="none" d="M 1092.9926161306282 572.5576509173434 L 1085 565 L 1085.3075668518939 575.9956992788824 L 1093.9840533212816 585.0820015416882"/></g><g transform="translate(-166,-398) scale(1,1)"><path fill="none" stroke="#000000" d="M 1092.9926161306282 572.5576509173434 L 1085 565 L 1085.3075668518939 575.9956992788824 L 1093.9840533212816 585.0820015416882 L 1092.9926161306282 572.5576509173434" stroke-miterlimit="10"/></g><g transform="translate(-166,-398) scale(1,1)"><rect fill="#C0C0C0" stroke="none" x="1243" y="1006" width="110.1435546875" height="44" opacity="0.2"/></g><g transform="translate(-166,-398) scale(1,1)"><rect fill="#ffffd8" stroke="none" x="1236" y="999" width="110.1435546875" height="44"/></g><g transform="translate(-166,-398) scale(1,1)"><path fill="none" stroke="#000000" d="M 1236 999 L 1346.1435546875 999 L 1346.1435546875 1043 L 1236 1043 L 1236 999 Z Z" stroke-miterlimit="10"/></g><g transform="translate(-166,-398) scale(1,1)"><path fill="none" stroke="#000000" d="M 1236 1024 L 1346.1435546875 1024" stroke-miterlimit="10"/></g><g transform="translate(-166,-398) scale(1,1)"><path fill="none" stroke="#000000" d="M 1236 1034 L 1346.1435546875 1034" stroke-miterlimit="10"/></g><g transform="translate(-166,-398) scale(1,1)"><g><path fill="none" stroke="none"/><text fill="#000000" stroke="none" font-family="Arial" font-size="13px" font-style="normal" font-weight="bold" text-decoration="none" x="1242.299560546875" y="1018.5">SCPHeaderField</text></g></g><g transform="translate(-166,-398) scale(1,1)"><path fill="none" stroke="#000000" d="M 1291 998 L 1291 948" stroke-miterlimit="10"/></g><g transform="translate(-166,-398) scale(1,1)"><path fill="#000000" stroke="none" d="M 1295.2095177560159 958.1626748576241 L 1291 948 L 1286.7904822439841 958.1626748576241 L 1291 970"/></g><g transform="translate(-166,-398) scale(1,1)"><path fill="none" stroke="#000000" d="M 1295.2095177560159 958.1626748576241 L 1291 948 L 1286.7904822439841 958.1626748576241 L 1291 970 L 1295.2095177560159 958.1626748576241" stroke-miterlimit="10"/></g><g transform="translate(-166,-398) scale(1,1)"><rect fill="#C0C0C0" stroke="none" x="887" y="1151" width="89.57080078125" height="87" opacity="0.2"/></g><g transform="translate(-166,-398) scale(1,1)"><rect fill="#a3e0ff" stroke="none" x="880" y="1144" width="89.57080078125" height="87"/></g><g transform="translate(-166,-398) scale(1,1)"><path fill="none" stroke="#000000" d="M 880 1144 L 969.57080078125 1144 L 969.57080078125 1231 L 880 1231 L 880 1144 Z Z" stroke-miterlimit="10"/></g><g transform="translate(-166,-398) scale(1,1)"><path fill="none" stroke="#000000" d="M 880 1169 L 969.57080078125 1169" stroke-miterlimit="10"/></g><g transform="translate(-166,-398) scale(1,1)"><path fill="none" stroke="#000000" d="M 880 1179 L 969.57080078125 1179" stroke-miterlimit="10"/></g><g transform="translate(-166,-398) scale(1,1)"><g><path fill="none" stroke="none"/><text fill="#000000" stroke="none" font-family="Arial" font-size="13px" font-style="normal" font-weight="bold" text-decoration="none" x="896.60498046875" y="1163.5">BytesTool</text></g></g><g transform="translate(-166,-398) scale(1,1)"><g><path fill="none" stroke="none"/><text fill="#000000" stroke="none" font-family="Arial" font-size="13px" font-style="normal" font-weight="normal" text-decoration="none" x="885" y="1196.5">+copy()</text></g></g><g transform="translate(-166,-398) scale(1,1)"><g><path fill="none" stroke="none"/><text fill="#000000" stroke="none" font-family="Arial" font-size="13px" font-style="normal" font-weight="normal" text-decoration="none" x="885" y="1211.5">+writeBytes()</text></g></g><g transform="translate(-166,-398) scale(1,1)"><g><path fill="none" stroke="none"/><text fill="#000000" stroke="none" font-family="Arial" font-size="13px" font-style="normal" font-weight="normal" text-decoration="none" x="885" y="1226.5">+writeString()</text></g></g><g transform="translate(-166,-398) scale(1,1)"><rect fill="#C0C0C0" stroke="none" x="1042" y="1006" width="126.00634765625" height="44" opacity="0.2"/></g><g transform="translate(-166,-398) scale(1,1)"><rect fill="#ffffd8" stroke="none" x="1035" y="999" width="126.00634765625" height="44"/></g><g transform="translate(-166,-398) scale(1,1)"><path fill="none" stroke="#000000" d="M 1035 999 L 1161.00634765625 999 L 1161.00634765625 1043 L 1035 1043 L 1035 999 Z Z" stroke-miterlimit="10"/></g><g transform="translate(-166,-398) scale(1,1)"><path fill="none" stroke="#000000" d="M 1035 1024 L 1161.00634765625 1024" stroke-miterlimit="10"/></g><g transform="translate(-166,-398) scale(1,1)"><path fill="none" stroke="#000000" d="M 1035 1034 L 1161.00634765625 1034" stroke-miterlimit="10"/></g><g transform="translate(-166,-398) scale(1,1)"><g><path fill="none" stroke="none"/><text fill="#000000" stroke="none" font-family="Arial" font-size="13px" font-style="normal" font-weight="bold" text-decoration="none" x="1043.21337890625" y="1018.5">SCPHuffmanStruct</text></g></g><g transform="translate(-166,-398) scale(1,1)"><rect fill="#C0C0C0" stroke="none" x="1061" y="910" width="89.91357421875" height="44" opacity="0.2"/></g><g transform="translate(-166,-398) scale(1,1)"><rect fill="#ffdf82" stroke="none" x="1054" y="903" width="89.91357421875" height="44"/></g><g transform="translate(-166,-398) scale(1,1)"><path fill="none" stroke="#000000" d="M 1054 903 L 1143.91357421875 903 L 1143.91357421875 947 L 1054 947 L 1054 903 Z Z" stroke-miterlimit="10"/></g><g transform="translate(-166,-398) scale(1,1)"><path fill="none" stroke="#000000" d="M 1054 928 L 1143.91357421875 928" stroke-miterlimit="10"/></g><g transform="translate(-166,-398) scale(1,1)"><path fill="none" stroke="#000000" d="M 1054 938 L 1143.91357421875 938" stroke-miterlimit="10"/></g><g transform="translate(-166,-398) scale(1,1)"><g><path fill="none" stroke="none"/><text fill="#000000" stroke="none" font-family="Arial" font-size="13px" font-style="normal" font-weight="bold" text-decoration="none" x="1060.29638671875" y="922.5">SCPSection2</text></g></g><g transform="translate(-166,-398) scale(1,1)"><path fill="none" stroke="#000000" d="M 1128 902 L 1417 680" stroke-miterlimit="10"/></g><g transform="translate(-166,-398) scale(1,1)"><path fill="#FFFFFF" stroke="none" d="M 1406.010059850505 699.0583634006312 L 1417 680 L 1395.752640796554 685.7052367943616"/></g><g transform="translate(-166,-398) scale(1,1)"><path fill="none" stroke="#000000" d="M 1406.010059850505 699.0583634006312 L 1417 680 L 1395.752640796554 685.7052367943616 L 1406.010059850505 699.0583634006312" stroke-miterlimit="10"/></g><g transform="translate(-166,-398) scale(1,1)"><path fill="none" stroke="#000000" d="M 1098 998 L 1098 948" stroke-miterlimit="10"/></g><g transform="translate(-166,-398) scale(1,1)"><path fill="#000000" stroke="none" d="M 1102.2095177560159 958.1626748576241 L 1098 948 L 1093.7904822439841 958.1626748576241 L 1098 970"/></g><g transform="translate(-166,-398) scale(1,1)"><path fill="none" stroke="#000000" d="M 1102.2095177560159 958.1626748576241 L 1098 948 L 1093.7904822439841 958.1626748576241 L 1098 970 L 1102.2095177560159 958.1626748576241" stroke-miterlimit="10"/></g><g transform="translate(-166,-398) scale(1,1)"><rect fill="#C0C0C0" stroke="none" x="890" y="1006" width="66.07177734375" height="44" opacity="0.2"/></g><g transform="translate(-166,-398) scale(1,1)"><rect fill="#ffffd8" stroke="none" x="883" y="999" width="66.07177734375" height="44"/></g><g transform="translate(-166,-398) scale(1,1)"><path fill="none" stroke="#000000" d="M 883 999 L 949.07177734375 999 L 949.07177734375 1043 L 883 1043 L 883 999 Z Z" stroke-miterlimit="10"/></g><g transform="translate(-166,-398) scale(1,1)"><path fill="none" stroke="#000000" d="M 883 1024 L 949.07177734375 1024" stroke-miterlimit="10"/></g><g transform="translate(-166,-398) scale(1,1)"><path fill="none" stroke="#000000" d="M 883 1034 L 949.07177734375 1034" stroke-miterlimit="10"/></g><g transform="translate(-166,-398) scale(1,1)"><g><path fill="none" stroke="none"/><text fill="#000000" stroke="none" font-family="Arial" font-size="13px" font-style="normal" font-weight="bold" text-decoration="none" x="888.2109375" y="1018.5">SCPLead</text></g></g><g transform="translate(-166,-398) scale(1,1)"><rect fill="#C0C0C0" stroke="none" x="879" y="910" width="89.91357421875" height="44" opacity="0.2"/></g><g transform="translate(-166,-398) scale(1,1)"><rect fill="#ffdf82" stroke="none" x="872" y="903" width="89.91357421875" height="44"/></g><g transform="translate(-166,-398) scale(1,1)"><path fill="none" stroke="#000000" d="M 872 903 L 961.91357421875 903 L 961.91357421875 947 L 872 947 L 872 903 Z Z" stroke-miterlimit="10"/></g><g transform="translate(-166,-398) scale(1,1)"><path fill="none" stroke="#000000" d="M 872 928 L 961.91357421875 928" stroke-miterlimit="10"/></g><g transform="translate(-166,-398) scale(1,1)"><path fill="none" stroke="#000000" d="M 872 938 L 961.91357421875 938" stroke-miterlimit="10"/></g><g transform="translate(-166,-398) scale(1,1)"><g><path fill="none" stroke="none"/><text fill="#000000" stroke="none" font-family="Arial" font-size="13px" font-style="normal" font-weight="bold" text-decoration="none" x="878.29638671875" y="922.5">SCPSection3</text></g></g><g transform="translate(-166,-398) scale(1,1)"><path fill="none" stroke="#000000" d="M 961 902 L 1417 668" stroke-miterlimit="10"/></g><g transform="translate(-166,-398) scale(1,1)"><path fill="#FFFFFF" stroke="none" d="M 1402.760373606142 684.7700041789899 L 1417 668 L 1395.0728799398494 669.7892472908304"/></g><g transform="translate(-166,-398) scale(1,1)"><path fill="none" stroke="#000000" d="M 1402.760373606142 684.7700041789899 L 1417 668 L 1395.0728799398494 669.7892472908304 L 1402.760373606142 684.7700041789899" stroke-miterlimit="10"/></g><g transform="translate(-166,-398) scale(1,1)"><path fill="none" stroke="#000000" d="M 916 998 L 916 948" stroke-miterlimit="10"/></g><g transform="translate(-166,-398) scale(1,1)"><path fill="#000000" stroke="none" d="M 920.209517756016 958.1626748576241 L 916 948 L 911.790482243984 958.1626748576241 L 916 970"/></g><g transform="translate(-166,-398) scale(1,1)"><path fill="none" stroke="#000000" d="M 920.209517756016 958.1626748576241 L 916 948 L 911.790482243984 958.1626748576241 L 916 970 L 920.209517756016 958.1626748576241" stroke-miterlimit="10"/></g><g transform="translate(-166,-398) scale(1,1)"><path fill="none" stroke="#000000" d="M 915 902 L 909 645" stroke-miterlimit="10"/></g><g transform="translate(-166,-398) scale(1,1)"><path fill="#FFFFFF" stroke="none" d="M 917.8911345694019 665.1233129993246 L 909 645 L 901.0576504647044 665.5163126282281"/></g><g transform="translate(-166,-398) scale(1,1)"><path fill="none" stroke="#000000" d="M 917.8911345694019 665.1233129993246 L 909 645 L 901.0576504647044 665.5163126282281 L 917.8911345694019 665.1233129993246" stroke-miterlimit="10"/></g><g transform="translate(-166,-398) scale(1,1)"><path fill="none" stroke="#000000" d="M 926 902 L 1065 565" stroke-miterlimit="10" stroke-dasharray="3"/></g><g transform="translate(-166,-398) scale(1,1)"><path fill="none" stroke="#000000" d="M 1065.016447208246 575.9999877040541 L 1065 565 L 1057.233464033977 572.7897958309876" stroke-miterlimit="10"/></g><g transform="translate(-166,-398) scale(1,1)"><rect fill="#C0C0C0" stroke="none" x="727" y="910" width="89.91357421875" height="44" opacity="0.2"/></g><g transform="translate(-166,-398) scale(1,1)"><rect fill="#ffdf82" stroke="none" x="720" y="903" width="89.91357421875" height="44"/></g><g transform="translate(-166,-398) scale(1,1)"><path fill="none" stroke="#000000" d="M 720 903 L 809.91357421875 903 L 809.91357421875 947 L 720 947 L 720 903 Z Z" stroke-miterlimit="10"/></g><g transform="translate(-166,-398) scale(1,1)"><path fill="none" stroke="#000000" d="M 720 928 L 809.91357421875 928" stroke-miterlimit="10"/></g><g transform="translate(-166,-398) scale(1,1)"><path fill="none" stroke="#000000" d="M 720 938 L 809.91357421875 938" stroke-miterlimit="10"/></g><g transform="translate(-166,-398) scale(1,1)"><g><path fill="none" stroke="none"/><text fill="#000000" stroke="none" font-family="Arial" font-size="13px" font-style="normal" font-weight="bold" text-decoration="none" x="726.29638671875" y="922.5">SCPSection6</text></g></g><g transform="translate(-166,-398) scale(1,1)"><path fill="none" stroke="#000000" d="M 811 906 L 1417 662" stroke-miterlimit="10"/></g><g transform="translate(-166,-398) scale(1,1)"><path fill="#FFFFFF" stroke="none" d="M 1401.2901199651862 677.4012879101639 L 1417 662 L 1395.0010821754727 661.7817924160394"/></g><g transform="translate(-166,-398) scale(1,1)"><path fill="none" stroke="#000000" d="M 1401.2901199651862 677.4012879101639 L 1417 662 L 1395.0010821754727 661.7817924160394 L 1401.2901199651862 677.4012879101639" stroke-miterlimit="10"/></g><g transform="translate(-166,-398) scale(1,1)"><rect fill="#C0C0C0" stroke="none" x="719" y="1000" width="122.80078125" height="87" opacity="0.2"/></g><g transform="translate(-166,-398) scale(1,1)"><rect fill="#a3e0ff" stroke="none" x="712" y="993" width="122.80078125" height="87"/></g><g transform="translate(-166,-398) scale(1,1)"><path fill="none" stroke="#000000" d="M 712 993 L 834.80078125 993 L 834.80078125 1080 L 712 1080 L 712 993 Z Z" stroke-miterlimit="10"/></g><g transform="translate(-166,-398) scale(1,1)"><path fill="none" stroke="#000000" d="M 712 1018 L 834.80078125 1018" stroke-miterlimit="10"/></g><g transform="translate(-166,-398) scale(1,1)"><path fill="none" stroke="#000000" d="M 712 1028 L 834.80078125 1028" stroke-miterlimit="10"/></g><g transform="translate(-166,-398) scale(1,1)"><g><path fill="none" stroke="none"/><text fill="#000000" stroke="none" font-family="Arial" font-size="13px" font-style="normal" font-weight="bold" text-decoration="none" x="747.390869140625" y="1012.5">ECGTool</text></g></g><g transform="translate(-166,-398) scale(1,1)"><g><path fill="none" stroke="none"/><text fill="#000000" stroke="none" font-family="Arial" font-size="13px" font-style="normal" font-weight="normal" text-decoration="none" x="717" y="1045.5">+ResampleLead()</text></g></g><g transform="translate(-166,-398) scale(1,1)"><g><path fill="none" stroke="none"/><text fill="#000000" stroke="none" font-family="Arial" font-size="13px" font-style="normal" font-weight="normal" text-decoration="none" x="717" y="1060.5">+ChangeMultiplier()</text></g></g><g transform="translate(-166,-398) scale(1,1)"><g><path fill="none" stroke="none"/><text fill="#000000" stroke="none" font-family="Arial" font-size="13px" font-style="normal" font-weight="normal" text-decoration="none" x="717" y="1075.5">+CalculateLeads()</text></g></g><g transform="translate(-166,-398) scale(1,1)"><path fill="none" stroke="#000000" d="M 766 948 L 769 992" stroke-miterlimit="10" stroke-dasharray="3"/></g><g transform="translate(-166,-398) scale(1,1)"><path fill="none" stroke="#000000" d="M 764.1089281230779 982.1472127854712 L 769 992 L 772.508462561539 981.5745172555761" stroke-miterlimit="10"/></g><g transform="translate(-166,-398) scale(1,1)"><path fill="none" stroke="#000000" d="M 811 925 L 871 925" stroke-miterlimit="10" stroke-dasharray="3"/></g><g transform="translate(-166,-398) scale(1,1)"><path fill="none" stroke="#000000" d="M 860.8373251423759 929.209517756016 L 871 925 L 860.8373251423758 920.790482243984" stroke-miterlimit="10"/></g><g transform="translate(-166,-398) scale(1,1)"><rect fill="#C0C0C0" stroke="none" x="575" y="910" width="89.91357421875" height="44" opacity="0.2"/></g><g transform="translate(-166,-398) scale(1,1)"><rect fill="#ffdf82" stroke="none" x="568" y="903" width="89.91357421875" height="44"/></g><g transform="translate(-166,-398) scale(1,1)"><path fill="none" stroke="#000000" d="M 568 903 L 657.91357421875 903 L 657.91357421875 947 L 568 947 L 568 903 Z Z" stroke-miterlimit="10"/></g><g transform="translate(-166,-398) scale(1,1)"><path fill="none" stroke="#000000" d="M 568 928 L 657.91357421875 928" stroke-miterlimit="10"/></g><g transform="translate(-166,-398) scale(1,1)"><path fill="none" stroke="#000000" d="M 568 938 L 657.91357421875 938" stroke-miterlimit="10"/></g><g transform="translate(-166,-398) scale(1,1)"><g><path fill="none" stroke="none"/><text fill="#000000" stroke="none" font-family="Arial" font-size="13px" font-style="normal" font-weight="bold" text-decoration="none" x="574.29638671875" y="922.5">SCPSection7</text></g></g><g transform="translate(-166,-398) scale(1,1)"><path fill="none" stroke="#000000" d="M 613 902 L 619 653" stroke-miterlimit="10"/></g><g transform="translate(-166,-398) scale(1,1)"><path fill="#FFFFFF" stroke="none" d="M 626.9269670425671 673.5222609257863 L 619 653 L 610.0937822841382 673.1166420159446"/></g><g transform="translate(-166,-398) scale(1,1)"><path fill="none" stroke="#000000" d="M 626.9269670425671 673.5222609257863 L 619 653 L 610.0937822841382 673.1166420159446 L 626.9269670425671 673.5222609257863" stroke-miterlimit="10"/></g><g transform="translate(-166,-398) scale(1,1)"><path fill="none" stroke="#000000" d="M 659 909 L 1417 659" stroke-miterlimit="10"/></g><g transform="translate(-166,-398) scale(1,1)"><path fill="#FFFFFF" stroke="none" d="M 1400.3344091010922 673.3616879227422 L 1417 659 L 1395.0604007434454 657.3708945823574"/></g><g transform="translate(-166,-398) scale(1,1)"><path fill="none" stroke="#000000" d="M 1400.3344091010922 673.3616879227422 L 1417 659 L 1395.0604007434454 657.3708945823574 L 1400.3344091010922 673.3616879227422" stroke-miterlimit="10"/></g><g transform="translate(-166,-398) scale(1,1)"><rect fill="#C0C0C0" stroke="none" x="492" y="1098" width="119.5380859375" height="44" opacity="0.2"/></g><g transform="translate(-166,-398) scale(1,1)"><rect fill="#ffffd8" stroke="none" x="485" y="1091" width="119.5380859375" height="44"/></g><g transform="translate(-166,-398) scale(1,1)"><path fill="none" stroke="#000000" d="M 485 1091 L 604.5380859375 1091 L 604.5380859375 1135 L 485 1135 L 485 1091 Z Z" stroke-miterlimit="10"/></g><g transform="translate(-166,-398) scale(1,1)"><path fill="none" stroke="#000000" d="M 485 1116 L 604.5380859375 1116" stroke-miterlimit="10"/></g><g transform="translate(-166,-398) scale(1,1)"><path fill="none" stroke="#000000" d="M 485 1126 L 604.5380859375 1126" stroke-miterlimit="10"/></g><g transform="translate(-166,-398) scale(1,1)"><g><path fill="none" stroke="none"/><text fill="#000000" stroke="none" font-family="Arial" font-size="13px" font-style="normal" font-weight="bold" text-decoration="none" x="491.66455078125" y="1110.5">SCPMeasurement</text></g></g><g transform="translate(-166,-398) scale(1,1)"><rect fill="#C0C0C0" stroke="none" x="625" y="1098" width="70.41357421875" height="44" opacity="0.2"/></g><g transform="translate(-166,-398) scale(1,1)"><rect fill="#ffffd8" stroke="none" x="618" y="1091" width="70.41357421875" height="44"/></g><g transform="translate(-166,-398) scale(1,1)"><path fill="none" stroke="#000000" d="M 618 1091 L 688.41357421875 1091 L 688.41357421875 1135 L 618 1135 L 618 1091 Z Z" stroke-miterlimit="10"/></g><g transform="translate(-166,-398) scale(1,1)"><path fill="none" stroke="#000000" d="M 618 1116 L 688.41357421875 1116" stroke-miterlimit="10"/></g><g transform="translate(-166,-398) scale(1,1)"><path fill="none" stroke="#000000" d="M 618 1126 L 688.41357421875 1126" stroke-miterlimit="10"/></g><g transform="translate(-166,-398) scale(1,1)"><g><path fill="none" stroke="none"/><text fill="#000000" stroke="none" font-family="Arial" font-size="13px" font-style="normal" font-weight="bold" text-decoration="none" x="623.582275390625" y="1110.5">SCPSpike</text></g></g><g transform="translate(-166,-398) scale(1,1)"><rect fill="#C0C0C0" stroke="none" x="709" y="1098" width="94.236328125" height="44" opacity="0.2"/></g><g transform="translate(-166,-398) scale(1,1)"><rect fill="#ffffd8" stroke="none" x="702" y="1091" width="94.236328125" height="44"/></g><g transform="translate(-166,-398) scale(1,1)"><path fill="none" stroke="#000000" d="M 702 1091 L 796.236328125 1091 L 796.236328125 1135 L 702 1135 L 702 1091 Z Z" stroke-miterlimit="10"/></g><g transform="translate(-166,-398) scale(1,1)"><path fill="none" stroke="#000000" d="M 702 1116 L 796.236328125 1116" stroke-miterlimit="10"/></g><g transform="translate(-166,-398) scale(1,1)"><path fill="none" stroke="#000000" d="M 702 1126 L 796.236328125 1126" stroke-miterlimit="10"/></g><g transform="translate(-166,-398) scale(1,1)"><g><path fill="none" stroke="none"/><text fill="#000000" stroke="none" font-family="Arial" font-size="13px" font-style="normal" font-weight="bold" text-decoration="none" x="708.65185546875" y="1110.5">SCPSpikeInfo</text></g></g><g transform="translate(-166,-398) scale(1,1)"><path fill="none" stroke="#000000" d="M 552 1090 L 604 948" stroke-miterlimit="10"/></g><g transform="translate(-166,-398) scale(1,1)"><path fill="#000000" stroke="none" d="M 604.4582175218408 958.9904520699869 L 604 948 L 596.5525855299587 956.0954319039455 L 596.4349477369603 968.65841194907"/></g><g transform="translate(-166,-398) scale(1,1)"><path fill="none" stroke="#000000" d="M 604.4582175218408 958.9904520699869 L 604 948 L 596.5525855299587 956.0954319039455 L 596.4349477369603 968.65841194907 L 604.4582175218408 958.9904520699869" stroke-miterlimit="10"/></g><g transform="translate(-166,-398) scale(1,1)"><path fill="none" stroke="#000000" d="M 648 1090 L 617 948" stroke-miterlimit="10"/></g><g transform="translate(-166,-398) scale(1,1)"><path fill="#000000" stroke="none" d="M 623.2802166820406 957.0309954283356 L 617 948 L 615.054905694951 958.8266619114327 L 621.6923026481688 969.4937734206442"/></g><g transform="translate(-166,-398) scale(1,1)"><path fill="none" stroke="#000000" d="M 623.2802166820406 957.0309954283356 L 617 948 L 615.054905694951 958.8266619114327 L 621.6923026481688 969.4937734206442 L 623.2802166820406 957.0309954283356" stroke-miterlimit="10"/></g><g transform="translate(-166,-398) scale(1,1)"><path fill="none" stroke="#000000" d="M 732 1090 L 629 948" stroke-miterlimit="10"/></g><g transform="translate(-166,-398) scale(1,1)"><path fill="#000000" stroke="none" d="M 638.3745583455607 953.7547941601484 L 629 948 L 631.5595598018012 958.6980677517486 L 641.9173964000724 965.8084494059251"/></g><g transform="translate(-166,-398) scale(1,1)"><path fill="none" stroke="#000000" d="M 638.3745583455607 953.7547941601484 L 629 948 L 631.5595598018012 958.6980677517486 L 641.9173964000724 965.8084494059251 L 638.3745583455607 953.7547941601484" stroke-miterlimit="10"/></g><g transform="translate(-166,-398) scale(1,1)"><rect fill="#C0C0C0" stroke="none" x="319" y="1098" width="159.287109375" height="44" opacity="0.2"/></g><g transform="translate(-166,-398) scale(1,1)"><rect fill="#ffffd8" stroke="none" x="312" y="1091" width="159.287109375" height="44"/></g><g transform="translate(-166,-398) scale(1,1)"><path fill="none" stroke="#000000" d="M 312 1091 L 471.287109375 1091 L 471.287109375 1135 L 312 1135 L 312 1091 Z Z" stroke-miterlimit="10"/></g><g transform="translate(-166,-398) scale(1,1)"><path fill="none" stroke="#000000" d="M 312 1116 L 471.287109375 1116" stroke-miterlimit="10"/></g><g transform="translate(-166,-398) scale(1,1)"><path fill="none" stroke="#000000" d="M 312 1126 L 471.287109375 1126" stroke-miterlimit="10"/></g><g transform="translate(-166,-398) scale(1,1)"><g><path fill="none" stroke="none"/><text fill="#000000" stroke="none" font-family="Arial" font-size="13px" font-style="normal" font-weight="bold" text-decoration="none" x="320.1181640625" y="1110.5">SCPExtraMeasurements</text></g></g><g transform="translate(-166,-398) scale(1,1)"><path fill="none" stroke="#000000" d="M 418 1090 L 585 948" stroke-miterlimit="10"/></g><g transform="translate(-166,-398) scale(1,1)"><path fill="#000000" stroke="none" d="M 579.9846473447218 957.7901091793296 L 585 948 L 574.5309575381502 951.3762627166715 L 568.239811498975 962.2511782463805"/></g><g transform="translate(-166,-398) scale(1,1)"><path fill="none" stroke="#000000" d="M 579.9846473447218 957.7901091793296 L 585 948 L 574.5309575381502 951.3762627166715 L 568.239811498975 962.2511782463805 L 579.9846473447218 957.7901091793296" stroke-miterlimit="10"/></g><g transform="translate(-166,-398) scale(1,1)"><rect fill="#C0C0C0" stroke="none" x="447" y="910" width="89.91357421875" height="44" opacity="0.2"/></g><g transform="translate(-166,-398) scale(1,1)"><rect fill="#ffdf82" stroke="none" x="440" y="903" width="89.91357421875" height="44"/></g><g transform="translate(-166,-398) scale(1,1)"><path fill="none" stroke="#000000" d="M 440 903 L 529.91357421875 903 L 529.91357421875 947 L 440 947 L 440 903 Z Z" stroke-miterlimit="10"/></g><g transform="translate(-166,-398) scale(1,1)"><path fill="none" stroke="#000000" d="M 440 928 L 529.91357421875 928" stroke-miterlimit="10"/></g><g transform="translate(-166,-398) scale(1,1)"><path fill="none" stroke="#000000" d="M 440 938 L 529.91357421875 938" stroke-miterlimit="10"/></g><g transform="translate(-166,-398) scale(1,1)"><g><path fill="none" stroke="none"/><text fill="#000000" stroke="none" font-family="Arial" font-size="13px" font-style="normal" font-weight="bold" text-decoration="none" x="446.29638671875" y="922.5">SCPSection8</text></g></g><g transform="translate(-166,-398) scale(1,1)"><path fill="none" stroke="#000000" d="M 531 911 L 1417 656" stroke-miterlimit="10"/></g><g transform="translate(-166,-398) scale(1,1)"><path fill="#FFFFFF" stroke="none" d="M 1399.7961024167382 669.7122539337863 L 1417 656 L 1395.1389796141045 653.5310350979689"/></g><g transform="translate(-166,-398) scale(1,1)"><path fill="none" stroke="#000000" d="M 1399.7961024167382 669.7122539337863 L 1417 656 L 1395.1389796141045 653.5310350979689 L 1399.7961024167382 669.7122539337863" stroke-miterlimit="10"/></g><g transform="translate(-166,-398) scale(1,1)"><path fill="none" stroke="#000000" d="M 484 902 L 487 653" stroke-miterlimit="10"/></g><g transform="translate(-166,-398) scale(1,1)"><path fill="#FFFFFF" stroke="none" d="M 495.1735585694637 673.42530147419 L 487 653 L 478.3367095107139 673.2224478710725"/></g><g transform="translate(-166,-398) scale(1,1)"><path fill="none" stroke="#000000" d="M 495.1735585694637 673.42530147419 L 487 653 L 478.3367095107139 673.2224478710725 L 495.1735585694637 673.42530147419" stroke-miterlimit="10"/></g><g transform="translate(-166,-398) scale(1,1)"><rect fill="#C0C0C0" stroke="none" x="292" y="1006" width="63.9072265625" height="44" opacity="0.2"/></g><g transform="translate(-166,-398) scale(1,1)"><rect fill="#ffffd8" stroke="none" x="285" y="999" width="63.9072265625" height="44"/></g><g transform="translate(-166,-398) scale(1,1)"><path fill="none" stroke="#000000" d="M 285 999 L 348.9072265625 999 L 348.9072265625 1043 L 285 1043 L 285 999 Z Z" stroke-miterlimit="10"/></g><g transform="translate(-166,-398) scale(1,1)"><path fill="none" stroke="#000000" d="M 285 1024 L 348.9072265625 1024" stroke-miterlimit="10"/></g><g transform="translate(-166,-398) scale(1,1)"><path fill="none" stroke="#000000" d="M 285 1034 L 348.9072265625 1034" stroke-miterlimit="10"/></g><g transform="translate(-166,-398) scale(1,1)"><g><path fill="none" stroke="none"/><text fill="#000000" stroke="none" font-family="Arial" font-size="13px" font-style="normal" font-weight="bold" text-decoration="none" x="289.858642578125" y="1018.5">SCPDate</text></g></g><g transform="translate(-166,-398) scale(1,1)"><rect fill="#C0C0C0" stroke="none" x="366" y="1006" width="65.8369140625" height="44" opacity="0.2"/></g><g transform="translate(-166,-398) scale(1,1)"><rect fill="#ffffd8" stroke="none" x="359" y="999" width="65.8369140625" height="44"/></g><g transform="translate(-166,-398) scale(1,1)"><path fill="none" stroke="#000000" d="M 359 999 L 424.8369140625 999 L 424.8369140625 1043 L 359 1043 L 359 999 Z Z" stroke-miterlimit="10"/></g><g transform="translate(-166,-398) scale(1,1)"><path fill="none" stroke="#000000" d="M 359 1024 L 424.8369140625 1024" stroke-miterlimit="10"/></g><g transform="translate(-166,-398) scale(1,1)"><path fill="none" stroke="#000000" d="M 359 1034 L 424.8369140625 1034" stroke-miterlimit="10"/></g><g transform="translate(-166,-398) scale(1,1)"><g><path fill="none" stroke="none"/><text fill="#000000" stroke="none" font-family="Arial" font-size="13px" font-style="normal" font-weight="bold" text-decoration="none" x="364.3505859375" y="1018.5">SCPTime</text></g></g><g transform="translate(-166,-398) scale(1,1)"><rect fill="#C0C0C0" stroke="none" x="183" y="1006" width="98.578125" height="44" opacity="0.2"/></g><g transform="translate(-166,-398) scale(1,1)"><rect fill="#ffffd8" stroke="none" x="176" y="999" width="98.578125" height="44"/></g><g transform="translate(-166,-398) scale(1,1)"><path fill="none" stroke="#000000" d="M 176 999 L 274.578125 999 L 274.578125 1043 L 176 1043 L 176 999 Z Z" stroke-miterlimit="10"/></g><g transform="translate(-166,-398) scale(1,1)"><path fill="none" stroke="#000000" d="M 176 1024 L 274.578125 1024" stroke-miterlimit="10"/></g><g transform="translate(-166,-398) scale(1,1)"><path fill="none" stroke="#000000" d="M 176 1034 L 274.578125 1034" stroke-miterlimit="10"/></g><g transform="translate(-166,-398) scale(1,1)"><g><path fill="none" stroke="none"/><text fill="#000000" stroke="none" font-family="Arial" font-size="13px" font-style="normal" font-weight="bold" text-decoration="none" x="182.29638671875" y="1018.5">SCPStatement</text></g></g><g transform="translate(-166,-398) scale(1,1)"><path fill="none" stroke="#000000" d="M 276 1002 L 439 942" stroke-miterlimit="10"/></g><g transform="translate(-166,-398) scale(1,1)"><path fill="#000000" stroke="none" d="M 430.91705511817884 949.4609652215676 L 439 942 L 428.0087957597397 941.5601939644746 L 418.3542897630451 949.5996479399834"/></g><g transform="translate(-166,-398) scale(1,1)"><path fill="none" stroke="#000000" d="M 430.91705511817884 949.4609652215676 L 439 942 L 428.0087957597397 941.5601939644746 L 418.3542897630451 949.5996479399834 L 430.91705511817884 949.4609652215676" stroke-miterlimit="10"/></g><g transform="translate(-166,-398) scale(1,1)"><path fill="none" stroke="#000000" d="M 350 1002 L 444 948" stroke-miterlimit="10"/></g><g transform="translate(-166,-398) scale(1,1)"><path fill="#000000" stroke="none" d="M 437.284752066094 956.7123731087557 L 444 948 L 433.0910245431576 949.4121807540146 L 424.9236780656431 958.958738132503"/></g><g transform="translate(-166,-398) scale(1,1)"><path fill="none" stroke="#000000" d="M 437.284752066094 956.7123731087557 L 444 948 L 433.0910245431576 949.4121807540146 L 424.9236780656431 958.958738132503 L 437.284752066094 956.7123731087557" stroke-miterlimit="10"/></g><g transform="translate(-166,-398) scale(1,1)"><path fill="none" stroke="#000000" d="M 413 998 L 462 948" stroke-miterlimit="10"/></g><g transform="translate(-166,-398) scale(1,1)"><path fill="#000000" stroke="none" d="M 457.89334502186597 958.204674658732 L 462 948 L 451.88036176597603 952.3119510679599 L 446.6015711880876 963.7126824611352"/></g><g transform="translate(-166,-398) scale(1,1)"><path fill="none" stroke="#000000" d="M 457.89334502186597 958.204674658732 L 462 948 L 451.88036176597603 952.3119510679599 L 446.6015711880876 963.7126824611352 L 457.89334502186597 958.204674658732" stroke-miterlimit="10"/></g><g transform="translate(-166,-398) scale(1,1)"><rect fill="#C0C0C0" stroke="none" x="231" y="783" width="79.078125" height="57" opacity="0.2"/></g><g transform="translate(-166,-398) scale(1,1)"><rect fill="#ffffff" stroke="none" x="224" y="776" width="79.078125" height="57"/></g><g transform="translate(-166,-398) scale(1,1)"><path fill="none" stroke="#000000" d="M 224 776 L 303.078125 776 L 303.078125 833 L 224 833 L 224 776 Z Z" stroke-miterlimit="10"/></g><g transform="translate(-166,-398) scale(1,1)"><path fill="none" stroke="#000000" d="M 224 801 L 303.078125 801" stroke-miterlimit="10"/></g><g transform="translate(-166,-398) scale(1,1)"><path fill="none" stroke="#000000" d="M 224 824 L 303.078125 824" stroke-miterlimit="10"/></g><g transform="translate(-166,-398) scale(1,1)"><g><path fill="none" stroke="none"/><text fill="#000000" stroke="none" font-family="Arial" font-size="13px" font-style="normal" font-weight="bold" text-decoration="none" x="230.661376953125" y="795.5">Statements</text></g></g><g transform="translate(-166,-398) scale(1,1)"><g><path fill="none" stroke="none"/><text fill="#000000" stroke="none" font-family="Arial" font-size="13px" font-style="normal" font-weight="normal" text-decoration="none" x="229" y="818.5">+statement</text></g></g><g transform="translate(-166,-398) scale(1,1)"><path fill="none" stroke="#000000" d="M 442 902 L 304 826" stroke-miterlimit="10" stroke-dasharray="3"/></g><g transform="translate(-166,-398) scale(1,1)"><path fill="none" stroke="#000000" d="M 314.93266873812127 827.2152177839819 L 304 826 L 310.87127546551966 834.5898529368638" stroke-miterlimit="10"/></g><g transform="translate(-166,-398) scale(1,1)"><path fill="none" stroke="#000000" d="M 1326 504 L 953 609" stroke-miterlimit="10"/></g><g transform="translate(-166,-398) scale(1,1)"><path fill="#FFFFFF" stroke="none" d="M 970.28363069289 595.3883832675251 L 953 609 L 974.8462389609117 611.5965059720213"/></g><g transform="translate(-166,-398) scale(1,1)"><path fill="none" stroke="#000000" d="M 970.28363069289 595.3883832675251 L 953 609 L 974.8462389609117 611.5965059720213 L 970.28363069289 595.3883832675251" stroke-miterlimit="10"/></g><g transform="translate(-166,-398) scale(1,1)"><rect fill="#C0C0C0" stroke="none" x="1023" y="415" width="89.57080078125" height="72" opacity="0.2"/></g><g transform="translate(-166,-398) scale(1,1)"><rect fill="#6dff6d" stroke="none" x="1016" y="408" width="89.57080078125" height="72"/></g><g transform="translate(-166,-398) scale(1,1)"><path fill="none" stroke="#000000" d="M 1016 408 L 1105.57080078125 408 L 1105.57080078125 480 L 1016 480 L 1016 408 Z Z" stroke-miterlimit="10"/></g><g transform="translate(-166,-398) scale(1,1)"><path fill="none" stroke="#000000" d="M 1016 433 L 1105.57080078125 433" stroke-miterlimit="10"/></g><g transform="translate(-166,-398) scale(1,1)"><path fill="none" stroke="#000000" d="M 1016 443 L 1105.57080078125 443" stroke-miterlimit="10"/></g><g transform="translate(-166,-398) scale(1,1)"><g><path fill="none" stroke="none"/><text fill="#000000" stroke="none" font-family="Arial" font-size="13px" font-style="normal" font-weight="bold" text-decoration="none" x="1024.30859375" y="427.5">IECGFormat</text></g></g><g transform="translate(-166,-398) scale(1,1)"><g><path fill="none" stroke="none"/><text fill="#000000" stroke="none" font-family="Arial" font-size="13px" font-style="italic" font-weight="normal" text-decoration="none" x="1021" y="460.5">+Works()</text></g></g><g transform="translate(-166,-398) scale(1,1)"><g><path fill="none" stroke="none"/><text fill="#000000" stroke="none" font-family="Arial" font-size="13px" font-style="italic" font-weight="normal" text-decoration="none" x="1021" y="475.5">+getFileSize()</text></g></g><g transform="translate(-166,-398) scale(1,1)"><path fill="none" stroke="#000000" d="M 1326 457 L 1107 446" stroke-miterlimit="10"/></g><g transform="translate(-166,-398) scale(1,1)"><path fill="#FFFFFF" stroke="none" d="M 1127.7221003919522 438.61118714908434 L 1107 446 L 1126.8774173793786 455.42805803577704"/></g><g transform="translate(-166,-398) scale(1,1)"><path fill="none" stroke="#000000" d="M 1127.7221003919522 438.61118714908434 L 1107 446 L 1126.8774173793786 455.42805803577704 L 1127.7221003919522 438.61118714908434" stroke-miterlimit="10"/></g><g transform="translate(-166,-398) scale(1,1)"><path fill="none" stroke="#000000" d="M 1015 463 L 674 607" stroke-miterlimit="10" stroke-dasharray="3"/></g><g transform="translate(-166,-398) scale(1,1)"><path fill="none" stroke="#000000" d="M 681.7245419397437 599.1685600416564 L 674 607 L 684.9997402881527 606.9244116861527" stroke-miterlimit="10"/></g><g transform="translate(-166,-398) scale(1,1)"><path fill="none" stroke="#000000" d="M 1015 459 L 528 617" stroke-miterlimit="10" stroke-dasharray="3"/></g><g transform="translate(-166,-398) scale(1,1)"><path fill="none" stroke="#000000" d="M 536.3675951902966 609.8597373485757 L 528 617 L 538.9657114415578 617.8678551610075" stroke-miterlimit="10"/></g><g transform="translate(-166,-398) scale(1,1)"><path fill="none" stroke="#000000" d="M 1028 481 L 928 599" stroke-miterlimit="10" stroke-dasharray="3"/></g><g transform="translate(-166,-398) scale(1,1)"><path fill="none" stroke="#000000" d="M 931.3589672021642 588.5253955046128 L 928 599 L 937.7818123553689 593.9684846174981" stroke-miterlimit="10"/></g><g transform="translate(-166,-398) scale(1,1)"><path fill="none" stroke="#000000" d="M 1107 480 L 1261 599" stroke-miterlimit="10" stroke-dasharray="3"/></g><g transform="translate(-166,-398) scale(1,1)"><path fill="none" stroke="#000000" d="M 1250.3845286984867 596.1169861174897 L 1261 599 L 1255.5323269237867 589.4551295906307" stroke-miterlimit="10"/></g></g></svg>